<svg id="Слой_1" enable-background="new 0 0 56 56" height="512" viewBox="0 0 56 56" width="512" xmlns="http://www.w3.org/2000/svg"><g id="XMLID_7438_"><path id="XMLID_9_" d="m25.548 37.143c-4.23 0-7.524-1.216-9.795-3.616-3.246-3.432-3.508-8.386-3.47-10.356.011-.551.505-1.001 1.015-.98 5.08.075 8.826 1.524 11.134 4.308 2.844 3.431 2.679 7.965 2.477 9.755-.057.499-.475.879-.977.888-.129 0-.257.001-.384.001zm-11.252-12.917c.089 2.061.612 5.497 2.91 7.925 1.781 1.884 4.398 2.886 7.786 2.983.088-1.846-.119-4.972-2.1-7.361-1.767-2.13-4.656-3.322-8.596-3.547z"/><path id="XMLID_6_" d="m30.452 37.143c-.127 0-.255-.001-.383-.003-.503-.009-.92-.389-.977-.887-.204-1.791-.369-6.324 2.476-9.756 2.309-2.783 6.054-4.232 11.134-4.307.541-.021 1.003.43 1.015.98.038 1.971-.224 6.925-3.47 10.356-2.271 2.401-5.565 3.617-9.795 3.617zm2.655-9.37c-1.98 2.39-2.188 5.516-2.099 7.361 3.387-.098 6.003-1.1 7.785-2.983 2.298-2.429 2.821-5.864 2.91-7.925-3.938.225-6.828 1.417-8.596 3.547z"/><path id="XMLID_3_" d="m28 51.192c-1.314 0-2.576-.389-3.648-1.123-4.565-3.13-15.185-11.961-15.185-26.338 0-5.754 1.715-10.347 5.098-13.652 5.617-5.489 13.686-5.269 13.77-5.269.276-.003 8.125-.179 13.702 5.269 3.382 3.304 5.097 7.897 5.097 13.652 0 14.375-10.619 23.207-15.185 26.338-1.073.735-2.335 1.123-3.649 1.123zm-.129-44.384c-1.099 0-7.591.19-12.208 4.702-2.983 2.915-4.496 7.026-4.496 12.222 0 13.426 10.012 21.737 14.316 24.688 1.476 1.012 3.559 1.012 5.035 0 4.305-2.95 14.315-11.264 14.315-24.688 0-5.196-1.513-9.308-4.495-12.222-4.974-4.86-12.235-4.695-12.308-4.7-.011 0-.066-.002-.159-.002z"/><path id="XMLID_2_" d="m27.994 44.68c-1.034 0-2.028-.307-2.876-.887-.456-.312-.572-.935-.26-1.39.312-.456.933-.572 1.39-.261.513.352 1.118.537 1.748.537h.004c.634 0 1.24-.186 1.754-.537.454-.312 1.079-.194 1.39.261.312.455.195 1.078-.261 1.39-.847.58-1.844.887-2.882.887-.003 0-.005 0-.007 0z"/></g></svg>